<svg width="26" height="25" viewBox="0 0 26 25" fill="none" xmlns="http://www.w3.org/2000/svg">
<path d="M0 1.34831C0 0.603661 0.603661 0 1.34831 0H24.6517C25.3963 0 26 0.603661 26 1.34831C26 2.09297 25.3963 2.69663 24.6517 2.69663H1.34831C0.603661 2.69663 0 2.09297 0 1.34831Z" fill="#E2CBA1"/>
<path d="M0 12.1347C0 11.39 0.603661 10.7864 1.34831 10.7864H24.6517C25.3963 10.7864 26 11.39 26 12.1347C26 12.8793 25.3963 13.483 24.6517 13.483H1.34831C0.603661 13.483 0 12.8793 0 12.1347Z" fill="#E2CBA1"/>
<path d="M0 22.9213C0 22.1767 0.603661 21.573 1.34831 21.573H24.6517C25.3963 21.573 26 22.1767 26 22.9213C26 23.666 25.3963 24.2697 24.6517 24.2697H1.34831C0.603661 24.2697 0 23.666 0 22.9213Z" fill="#E2CBA1"/>
</svg>
