<svg width="18" height="18" viewBox="0 0 18 18" fill="none" xmlns="http://www.w3.org/2000/svg">
<path d="M12.4799 10.56C13.4199 9.21444 13.8204 7.56503 13.6022 5.93825C13.3841 4.31147 12.5631 2.8259 11.3018 1.77559C10.0405 0.725278 8.43085 0.186791 6.79145 0.266718C5.15206 0.346645 3.60243 1.03916 2.44929 2.20718C1.29615 3.3752 0.623551 4.9336 0.564648 6.57389C0.505745 8.21417 1.06478 9.8168 2.13118 11.0645C3.19757 12.3123 4.69351 13.1141 6.32295 13.3114C7.95239 13.5088 9.59662 13.0871 10.93 12.13L16 17.2C16.2068 17.4068 16.4874 17.5231 16.78 17.5231C17.0725 17.5231 17.3531 17.4068 17.56 17.2C17.7669 16.9931 17.883 16.7125 17.883 16.42C17.883 16.1274 17.7669 15.8469 17.56 15.64L12.4799 10.56ZM7.08003 11.65C6.11528 11.648 5.17273 11.3601 4.37153 10.8227C3.57034 10.2853 2.94639 9.52244 2.57856 8.63056C2.21074 7.73868 2.11558 6.75779 2.305 5.81183C2.49443 4.86586 2.9599 3.99726 3.64277 3.31578C4.32565 2.6343 5.1952 2.17052 6.14155 1.98303C7.08791 1.79554 8.06867 1.89277 8.95979 2.26242C9.85091 2.63206 10.6125 3.25755 11.1483 4.05984C11.684 4.86213 11.9699 5.80524 11.9699 6.76998C11.9699 7.41168 11.8435 8.04707 11.5976 8.63979C11.3517 9.23251 10.9913 9.77092 10.5371 10.2242C10.0829 10.6775 9.54374 11.0367 8.95051 11.2814C8.35729 11.526 7.72172 11.6513 7.08003 11.65Z" fill="black"/>
</svg>
